#!OML:ASF I:\salsa\salsa 7_09\Patient 1\Session 1\dancermale.ASF
:FULLY-SPECIFIED
:DEGREES
1154
root -4.24021 17.9864 -5.64023 66.4673 87.4498 420.382
lowerback -7.16081 -1.62293 0.745718
upperback -0.902499 -2.02345 -3.87216
thorax 2.91423 -0.953283 -4.62847
lowerneck -6.76937 -4.41259 2.08418
upperneck 19.8941 -6.33924 1.42816
head 7.18432 -2.62883 -0.381067
rclavicle -2.25869e-014 -3.65764e-014
rhumerus 21.9694 14.5495 27.0475
rradius 101.802
rwrist -52.9051
rhand -0.129525 0.963034
rfingers 7.12502
rthumb 25.4663 -27.3555
lclavicle -2.25869e-014 -3.65764e-014
lhumerus -35.6514 -34.8662 105.156
lradius 84.0778
lwrist 33.0257
lhand -15.8255 60.5225
lfingers 7.12502
lthumb 10.3684 269.753
rfemur -31.0084 -6.45635 19.8746
rtibia 36.6012
rfoot -2.88709 -23.1854
rtoes 38.6839
lfemur -5.94942 7.00068 -17.7841
ltibia 21.647
lfoot -7.1994 10.1729
ltoes -25.1016
1155
root -4.09948 17.9875 -5.6914 46.7578 86.462 400.658
lowerback -7.07975 -1.57109 0.403926
upperback -0.883165 -1.91886 -4.0342
thorax 2.90385 -0.902149 -4.59226
lowerneck -6.50488 -3.99922 2.10842
upperneck 20.0643 -5.85484 1.93881
head 7.21114 -2.34299 -0.177355
rclavicle -4.07509e-015 -3.26007e-014
rhumerus 21.2838 17.2472 27.3107
rradius 105.119
rwrist -52.4877
rhand 0.141122 0.257057
rfingers 7.12502
rthumb 25.7255 -28.0242
lclavicle -4.07509e-015 -3.26007e-014
lhumerus -35.1092 -34.7116 105.088
lradius 84.6904
lwrist 32.5808
lhand -15.3638 60.6081
lfingers 7.12502
lthumb 10.8139 269.69
rfemur -30.4392 -6.63279 20.182
rtibia 34.8501
rfoot -2.34542 -23.6731
rtoes 38.1251
lfemur -5.54229 7.39057 -18.1741
ltibia 22.0642
lfoot -6.75233 10.684
ltoes -24.6322
1156
root -3.95469 17.9802 -5.73155 37.2427 85.3236 391.194
lowerback -6.9224 -1.56091 -0.0801702
upperback -0.944225 -1.86306 -4.17914
thorax 2.76833 -0.878523 -4.4569
lowerneck -6.00665 -3.62785 2.10395
upperneck 20.2555 -5.41549 2.48096
head 7.20234 -2.07783 0.0427448
rclavicle 5.46658e-015 3.73715e-014
rhumerus 21.0286 20.4816 27.0795
rradius 107.821
rwrist -51.558
rhand 0.373553 -0.469664
rfingers 7.12502
rthumb 25.9481 -28.7185
lclavicle 5.46658e-015 3.73715e-014
lhumerus -35.0438 -34.3576 105.176
lradius 85.5128
lwrist 32.4566
lhand -14.9133 60.6771
lfingers 7.12502
lthumb 11.2483 269.645
rfemur -29.7297 -6.46073 20.3581
rtibia 33.4609
rfoot -0.690574 -24.1559
rtoes 40.1373
lfemur -5.12351 7.5851 -18.5485
ltibia 22.6067
lfoot -6.45125 11.0814
ltoes -23.6762
1157
root -3.81157 17.9707 -5.76454 33.2364 84.2794 387.461
lowerback -6.5817 -1.61479 -0.686349
upperback -0.796546 -1.88568 -4.34061
thorax 2.74383 -0.892534 -4.27561
lowerneck -5.91842 -3.28582 2.062
upperneck 20.4484 -5.0419 3.044
head 7.26638 -1.84456 0.261843
rclavicle 1.73191e-014 2.3059e-014
rhumerus 20.4921 23.7616 26.5301
rradius 110.316
rwrist -50.1333
rhand 0.946276 -1.13427
rfingers 7.12502
rthumb 26.4964 -29.3016
lclavicle 1.73191e-014 2.3059e-014
lhumerus -34.794 -33.9551 105.094
lradius 86.3625
lwrist 32.5093
lhand -14.1713 60.6779
lfingers 7.12502
lthumb 11.9639 269.684
rfemur -28.7174 -6.10805 20.3045
rtibia 32.5172
rfoot 0.228316 -24.3473
rtoes 41.1015
lfemur -4.55076 7.55016 -18.9796
ltibia 23.2245
lfoot -6.15079 11.3212
ltoes -23.4282
1158
root -3.66364 17.9604 -5.78711 30.2669 83.3112 384.965
lowerback -6.32011 -1.6584 -1.29999
upperback -0.303402 -1.88487 -4.46044
thorax 3.12458 -0.892461 -4.05758
lowerneck -6.40525 -2.97325 1.94325
upperneck 20.5532 -4.72091 3.52378
head 7.4019 -1.65173 0.453844
rclavicle 5.59082e-015 -1.82882e-014
rhumerus 19.5325 26.8074 25.6942
rradius 112.616
rwrist -48.2944
rhand 1.55139 -1.67054
rfingers 7.12502
rthumb 27.0755 -29.7492
lclavicle 5.59082e-015 -1.82882e-014
lhumerus -34.0245 -33.5488 104.687
lradius 87.2891
lwrist 32.4432
lhand -13.354 60.6967
lfingers 7.12502
lthumb 12.7519 269.713
rfemur -27.4196 -5.58372 20.262
rtibia 31.9442
rfoot -0.253139 -24.5929
rtoes 40.6828
lfemur -3.77142 7.61142 -19.2646
ltibia 23.8639
lfoot -5.88451 11.398
ltoes -23.8785
1159
root -3.50606 17.9385 -5.79635 27.6904 82.2926 382.533
lowerback -6.36471 -1.65432 -1.90114
upperback -0.0259652 -1.81303 -4.56181
thorax 3.45792 -0.860071 -3.82775
lowerneck -6.64481 -2.70342 1.85909
upperneck 20.5827 -4.42903 3.91032
head 7.46368 -1.48223 0.613922
rclavicle -3.37934e-014 -1.27222e-014
rhumerus 18.288 30.2531 24.5153
rradius 114.805
rwrist -46.1441
rhand 2.65734 -2.29901
rfingers 7.12502
rthumb 28.1331 -30.2086
lclavicle -3.37934e-014 -1.27222e-014
lhumerus -33.7367 -33.0807 104.437
lradius 88.4864
lwrist 32.7665
lhand -13.1365 60.6082
lfingers 7.12502
lthumb 12.9616 269.814
rfemur -26.4468 -4.88516 20.3224
rtibia 31.4963
rfoot -1.62798 -24.9249
rtoes 39.285
lfemur -3.39944 8.00289 -19.429
ltibia 24.7193
lfoot -5.72638 11.3074
ltoes -23.7233
1160
root -3.34274 17.908 -5.79971 26.4352 81.4174 381.023
lowerback -6.75139 -1.71114 -2.48709
upperback -0.00609683 -1.81264 -4.63993
thorax 3.71265 -0.865223 -3.59503
lowerneck -6.65928 -2.43703 1.68211
upperneck 20.7517 -4.13116 4.37372
head 7.5326 -1.30479 0.819842
rclavicle 1.13804e-014 -7.95139e-015
rhumerus 16.8222 34.3166 23.0441
rradius 116.786
rwrist -44.9106
rhand 3.47965 -2.36783
rfingers 7.12502
rthumb 28.9188 -30.1455
lclavicle 1.13804e-014 -7.95139e-015
lhumerus -34.0008 -32.4934 104.44
lradius 89.7827
lwrist 33.4683
lhand -13.621 60.483
lfingers 7.12502
lthumb 12.4945 269.911
rfemur -25.7091 -4.38099 20.3358
rtibia 30.7603
rfoot -3.02593 -25.0032
rtoes 37.3384
lfemur -3.633 8.49913 -19.5977
ltibia 25.8846
lfoot -5.61693 11.0482
ltoes -23.2559
1161
root -3.1822 17.8819 -5.79501 25.5158 80.8374 379.94
lowerback -6.88066 -1.83223 -3.04355
upperback -0.0560429 -1.91952 -4.6463
thorax 3.74784 -0.926013 -3.30318
lowerneck -6.68673 -2.20677 1.37244
upperneck 21.0964 -3.86101 4.79656
head 7.66131 -1.14742 1.03434
rclavicle 2.07233e-014 -1.74931e-014
rhumerus 14.748 38.4513 20.9929
rradius 118.529
rwrist -43.1307
rhand 5.1132 -2.58599
rfingers 7.12502
rthumb 30.4779 -30.0856
lclavicle 2.07233e-014 -1.74931e-014
lhumerus -34.5971 -31.7619 104.609
lradius 91.0855
lwrist 33.8597
lhand -13.8678 60.2248
lfingers 7.12502
lthumb 12.2566 449.846
rfemur -24.5695 -4.14879 20.3818
rtibia 29.5479
rfoot -4.33944 -24.8594
rtoes 35.0927
lfemur -3.93006 9.07177 -19.552
ltibia 27.2858
lfoot -5.53931 10.5089
ltoes -23.1183
1162
root -3.02057 17.8555 -5.78093 24.6802 80.4578 379.023
lowerback -6.81446 -1.97667 -3.59413
upperback -0.120287 -2.07586 -4.583
thorax 3.66135 -1.01243 -2.93934
lowerneck -6.63047 -1.94858 0.964962
upperneck 21.2875 -3.53468 5.23759
head 7.72205 -0.976678 1.27788
rclavicle 2.84262e-014 -4.77083e-015
rhumerus 11.8474 42.7009 18.3406
rradius 120.157
rwrist -40.2489
rhand 7.12169 -2.38244
rfingers 7.12502
rthumb 32.3915 -29.5091
lclavicle 2.84262e-014 -4.77083e-015
lhumerus -35.3584 -30.8509 104.751
lradius 92.445
lwrist 33.5167
lhand -14.2284 59.8606
lfingers 7.12502
lthumb 11.9089 449.502
rfemur -23.1771 -3.97613 20.4107
rtibia 28.0542
rfoot -5.71156 -24.6452
rtoes 32.7578
lfemur -4.27934 9.6046 -19.3495
ltibia 28.8972
lfoot -5.34329 9.81935
ltoes -23.063
1163
root -2.85607 17.8249 -5.76265 23.8735 80.0846 378.057
lowerback -6.94177 -2.12755 -3.98155
upperback -0.108264 -2.23172 -4.59822
thorax 3.75683 -1.09511 -2.76044
lowerneck -6.5004 -1.57794 0.722496
upperneck 21.1763 -3.08179 5.76178
head 7.66196 -0.737593 1.53056
rclavicle -3.77691e-015 -1.59028e-015
rhumerus 8.15943 47.122 14.8221
rradius 121.694
rwrist -36.9655
rhand 8.86877 -1.78028
rfingers 7.12502
rthumb 34.0526 -28.5523
lclavicle -3.77691e-015 -1.59028e-015
lhumerus -36.0818 -29.9927 104.547
lradius 93.828
lwrist 33.0841
lhand -12.5261 59.9644
lfingers 7.12502
lthumb 13.55 449.503
rfemur -21.9073 -3.71012 20.3823
rtibia 26.6999
rfoot -7.05124 -24.2958
rtoes 29.3585
lfemur -4.90854 10.0311 -19.1577
ltibia 30.834
lfoot -4.96496 9.07843
ltoes -22.9676
1164
root -2.69914 17.7945 -5.74278 23.4666 79.7693 377.518
lowerback -6.80105 -2.34181 -4.40429
upperback -0.196493 -2.49523 -4.60008
thorax 3.6003 -1.23003 -2.54394
lowerneck -6.53438 -1.2269 0.612289
upperneck 21.237 -2.63946 6.04066
head 7.68017 -0.508185 1.67949
rclavicle 3.24019e-014 -5.24792e-014
rhumerus 3.89729 51.163 10.4513
rradius 122.76
rwrist -31.7105
rhand 13.1811 -0.95498
rfingers 7.12502
rthumb 38.1369 -26.7168
lclavicle 3.24019e-014 -5.24792e-014
lhumerus -37.0919 -29.0413 104.362
lradius 95.2677
lwrist 32.8816
lhand -13.8652 59.8171
lfingers 7.12502
lthumb 12.259 449.438
rfemur -20.749 -3.32006 20.2406
rtibia 25.6426
rfoot -8.36382 -23.9044
rtoes 25.3194
lfemur -5.82033 10.2811 -19.0482
ltibia 33.1908
lfoot -4.43391 8.29655
ltoes -22.1178
1165
root -2.54214 17.7662 -5.71646 22.4429 79.3496 376.456
lowerback -6.52214 -2.4817 -4.76456
upperback -0.297048 -2.68157 -4.57092
thorax 3.35581 -1.32512 -2.31441
lowerneck -6.65792 -0.973193 0.510487
upperneck 21.3903 -2.31339 6.18179
head 7.74552 -0.342263 1.7729
rclavicle -3.86636e-014 -4.77083e-014
rhumerus -1.71849 55.4926 4.84525
rradius 123.632
rwrist -27.5549
rhand 14.9751 -0.381273
rfingers 7.12502
rthumb 39.8282 -25.6589
lclavicle -3.86636e-014 -4.77083e-014
lhumerus -38.3383 -28.0408 104.211
lradius 96.7811
lwrist 32.4969
lhand -14.3658 59.8007
lfingers 7.12502
lthumb 11.7764 449.45
rfemur -19.5071 -2.64347 20.1557
rtibia 24.6422
rfoot -9.74071 -23.4583
rtoes 21.936
lfemur -6.75468 10.616 -18.8244
ltibia 35.7856
lfoot -3.66506 7.56666
ltoes -20.0766
